<?xml version="1.0" ?><!-- Uploaded to: SVG Repo, www.svgrepo.com, Generator: SVG Repo Mixer Tools -->
<svg fill="#000000" width="800px" height="800px" viewBox="0 0 24 24" data-name="Layer 1" id="Layer_1" xmlns="http://www.w3.org/2000/svg"><title/><path d="M7,12.59,2.79,16.79a3.12,3.12,0,1,0,4.41,4.41L11.41,17l-1.5-1.5.9-.9A7,7,0,1,0,9.4,13.18l-.9.9ZM15,4a5,5,0,1,1-5,5A5,5,0,0,1,15,4ZM5.79,19.79a1.15,1.15,0,0,1-1.59,0,1.12,1.12,0,0,1,0-1.59L7,15.41,8.59,17Z"/><polygon points="18.71 7.71 17.29 6.29 14 9.59 12.71 8.29 11.29 9.71 14 12.41 18.71 7.71"/></svg>